<svg width="32" height="32" viewBox="0 0 32 32" fill="none" xmlns="http://www.w3.org/2000/svg">
<path d="M16 0C24.8368 0 32 7.1632 32 16C32 24.8368 24.8368 32 16 32C7.1632 32 0 24.8368 0 16C0 7.1632 7.1632 0 16 0ZM16 2.232C12.3485 2.232 8.84655 3.68255 6.26455 6.26455C3.68255 8.84655 2.232 12.3485 2.232 16C2.232 19.6515 3.68255 23.1534 6.26455 25.7354C8.84655 28.3174 12.3485 29.768 16 29.768C19.6515 29.768 23.1534 28.3174 25.7354 25.7354C28.3174 23.1534 29.768 19.6515 29.768 16C29.768 12.3485 28.3174 8.84655 25.7354 6.26455C23.1534 3.68255 19.6515 2.232 16 2.232V2.232ZM14.512 8.9296C15.128 8.9296 15.6272 9.4304 15.6272 10.0464V17.8608H23.4416C23.7303 17.8717 24.0035 17.9941 24.2038 18.2022C24.4042 18.4103 24.5161 18.6879 24.5161 18.9768C24.5161 19.2657 24.4042 19.5433 24.2038 19.7514C24.0035 19.9595 23.7303 20.0819 23.4416 20.0928H14.512C14.2158 20.0928 13.9317 19.9751 13.7223 19.7657C13.5129 19.5563 13.3952 19.2722 13.3952 18.976V10.048C13.3952 9.4304 13.8944 8.9296 14.512 8.9296V8.9296Z" fill="black"/>
</svg>
