<svg width="32" height="32" viewBox="0 0 32 32" fill="none" xmlns="http://www.w3.org/2000/svg">
<g clip-path="url(#clip0)">
<path d="M32.0004 15C32.0005 15.9567 31.7263 16.8932 31.2101 17.6987C30.6939 18.5041 29.9576 19.1446 29.0884 19.544C28.74 18.9327 28.3018 18.3772 27.7884 17.896C28.5564 17.6868 29.2099 17.181 29.605 16.4899C30.0002 15.7988 30.1046 14.9791 29.8954 14.211C29.6861 13.443 29.1803 12.7895 28.4892 12.3944C27.7982 11.9992 26.9784 11.8948 26.2104 12.104C26.0721 12.1415 25.9275 12.1488 25.7862 12.1256C25.6448 12.1023 25.5102 12.0489 25.3913 11.9691C25.2724 11.8892 25.172 11.7848 25.097 11.6628C25.022 11.5408 24.974 11.4042 24.9564 11.262C24.8149 10.1167 24.3462 9.03643 23.6063 8.15075C22.8665 7.26507 21.8869 6.61154 20.785 6.26852C19.6831 5.9255 18.5057 5.90753 17.3938 6.21678C16.282 6.52602 15.2829 7.14934 14.5164 8.01204C13.6618 7.97282 12.8055 8.03187 11.9644 8.18804C12.7313 6.77566 13.9057 5.62689 15.3347 4.89128C16.7637 4.15566 18.381 3.86727 19.9761 4.06364C21.5713 4.26001 23.0704 4.93205 24.2782 5.99228C25.4861 7.05251 26.3468 8.45181 26.7484 10.008C27.4252 9.97388 28.1019 10.0777 28.7374 10.3131C29.3729 10.5485 29.9538 10.9107 30.445 11.3776C30.9362 11.8445 31.3274 12.4063 31.5948 13.0291C31.8621 13.6518 32.0001 14.3223 32.0004 15Z" fill="black"/>
<path d="M14.0001 10C16.2142 9.99958 18.3508 10.8153 20.0012 12.2912C21.6517 13.7671 22.7001 15.7996 22.9461 18H23.0001C24.3262 18 25.598 18.5268 26.5357 19.4645C27.4734 20.4021 28.0001 21.6739 28.0001 23C28.0001 24.3261 27.4734 25.5979 26.5357 26.5355C25.598 27.4732 24.3262 28 23.0001 28H6.00014C4.45086 28.0012 2.96118 27.403 1.84292 26.3307C0.724669 25.2584 0.0645359 23.7952 0.00070483 22.2472C-0.0631262 20.6992 0.474294 19.1866 1.50047 18.0259C2.52664 16.8652 3.96202 16.1464 5.50614 16.02C6.12419 14.2605 7.27334 12.7363 8.79487 11.6579C10.3164 10.5795 12.1352 10.0002 14.0001 10ZM21.0001 19C21.0013 17.295 20.3802 15.6483 19.2534 14.3688C18.1266 13.0892 16.5715 12.265 14.88 12.0507C13.1886 11.8364 11.4771 12.2467 10.0668 13.2048C8.65643 14.1628 7.64422 15.6026 7.22014 17.254C7.16276 17.4775 7.02985 17.6743 6.84395 17.811C6.65804 17.9477 6.43059 18.0159 6.20014 18.004C5.66886 17.9804 5.13821 18.063 4.63923 18.2469C4.14025 18.4309 3.68295 18.7125 3.2941 19.0752C2.90524 19.438 2.59263 19.8747 2.37454 20.3597C2.15646 20.8448 2.03728 21.3684 2.02398 21.9C2.01069 22.4317 2.10353 22.9606 2.2971 23.456C2.49066 23.9513 2.78105 24.403 3.15129 24.7848C3.52152 25.1666 3.96416 25.4707 4.45333 25.6793C4.94249 25.888 5.46835 25.997 6.00014 26H23.0001C23.4255 25.999 23.8458 25.9076 24.2332 25.7318C24.6205 25.556 24.966 25.2998 25.2468 24.9802C25.5276 24.6607 25.7372 24.2851 25.8617 23.8784C25.9863 23.4716 26.0229 23.0431 25.9692 22.6211C25.9154 22.1991 25.7726 21.7934 25.5501 21.4308C25.3276 21.0683 25.0306 20.7572 24.6787 20.5182C24.3268 20.2792 23.9281 20.1178 23.509 20.0447C23.09 19.9715 22.6602 19.9884 22.2481 20.094C22.0992 20.1321 21.9435 20.1354 21.7931 20.1036C21.6427 20.0718 21.5016 20.0057 21.3809 19.9105C21.2601 19.8153 21.163 19.6936 21.097 19.5548C21.0309 19.4159 20.9978 19.2637 21.0001 19.11V19Z" fill="black"/>
</g>
<defs>
<clipPath id="clip0">
<rect width="32" height="32" fill="white"/>
</clipPath>
</defs>
</svg>
