<svg width="32" height="32" viewBox="0 0 32 32" fill="none" xmlns="http://www.w3.org/2000/svg">
<path d="M26 30H22C21.4701 29.9984 20.9623 29.7872 20.5875 29.4125C20.2128 29.0378 20.0016 28.53 20 28V21C19.4701 20.9984 18.9623 20.7872 18.5875 20.4125C18.2128 20.0378 18.0016 19.53 18 19V13C17.9927 12.604 18.0653 12.2106 18.2135 11.8434C18.3616 11.4761 18.5823 11.1424 18.8624 10.8624C19.1424 10.5823 19.4761 10.3616 19.8434 10.2135C20.2106 10.0653 20.604 9.99269 21 10H27C27.396 9.99269 27.7894 10.0653 28.1567 10.2135C28.524 10.3616 28.8576 10.5823 29.1377 10.8624C29.4177 11.1424 29.6384 11.4761 29.7866 11.8434C29.9348 12.2106 30.0073 12.604 30 13V19C29.9984 19.53 29.7872 20.0378 29.4125 20.4125C29.0378 20.7872 28.53 20.9984 28 21V28C27.9984 28.53 27.7872 29.0378 27.4125 29.4125C27.0378 29.7872 26.53 29.9984 26 30ZM21 12C20.8666 11.992 20.733 12.0124 20.608 12.0598C20.4831 12.1072 20.3696 12.1806 20.2751 12.2751C20.1806 12.3696 20.1072 12.4831 20.0598 12.608C20.0124 12.733 19.992 12.8666 20 13V19H22V28H26V19H28V13C28.008 12.8666 27.9877 12.733 27.9402 12.608C27.8928 12.4831 27.8194 12.3696 27.7249 12.2751C27.6304 12.1806 27.5169 12.1072 27.392 12.0598C27.267 12.0124 27.1334 11.992 27 12H21Z" fill="black"/>
<path d="M24 9C23.2089 9 22.4355 8.76541 21.7777 8.32588C21.1199 7.88635 20.6072 7.26164 20.3045 6.53074C20.0017 5.79983 19.9225 4.99556 20.0769 4.21964C20.2312 3.44372 20.6122 2.73098 21.1716 2.17157C21.731 1.61216 22.4437 1.2312 23.2196 1.07686C23.9956 0.92252 24.7998 1.00173 25.5307 1.30448C26.2616 1.60723 26.8864 2.11992 27.3259 2.77772C27.7654 3.43552 28 4.20888 28 5C27.9968 6.05989 27.5744 7.07547 26.8249 7.82493C26.0755 8.57439 25.0599 8.99684 24 9ZM24 3C23.6044 3 23.2178 3.1173 22.8889 3.33706C22.56 3.55683 22.3036 3.86918 22.1522 4.23463C22.0009 4.60009 21.9613 5.00222 22.0384 5.39018C22.1156 5.77814 22.3061 6.13451 22.5858 6.41422C22.8655 6.69392 23.2219 6.8844 23.6098 6.96157C23.9978 7.03874 24.3999 6.99914 24.7654 6.84776C25.1308 6.69639 25.4432 6.44004 25.6629 6.11114C25.8827 5.78224 26 5.39556 26 5C25.9984 4.47006 25.7872 3.96227 25.4125 3.58754C25.0377 3.21281 24.5299 3.00158 24 3Z" fill="black"/>
<path d="M10 20.184V12H8.00001V20.184C7.33279 20.4199 6.77045 20.8841 6.41237 21.4945C6.0543 22.1049 5.92354 22.8222 6.04321 23.5197C6.16288 24.2172 6.52528 24.85 7.06635 25.3061C7.60741 25.7622 8.29232 26.0124 9.00001 26.0124C9.70769 26.0124 10.3926 25.7622 10.9337 25.3061C11.4747 24.85 11.8371 24.2172 11.9568 23.5197C12.0765 22.8222 11.9457 22.1049 11.5876 21.4945C11.2296 20.8841 10.6672 20.4199 10 20.184Z" fill="black"/>
<path d="M8.99989 30C7.62187 30.0016 6.2741 29.5959 5.12583 28.8341C3.97756 28.0722 3.07999 26.9881 2.54581 25.7178C2.01163 24.4475 1.86466 23.0477 2.12336 21.6942C2.38206 20.3407 3.0349 19.0937 3.99989 18.11V7C3.99989 5.67392 4.52668 4.40215 5.46436 3.46447C6.40204 2.52678 7.67381 2 8.99989 2C10.326 2 11.5977 2.52678 12.5354 3.46447C13.4731 4.40215 13.9999 5.67392 13.9999 7V18.11C14.9649 19.0937 15.6177 20.3407 15.8764 21.6942C16.1351 23.0477 15.9882 24.4475 15.454 25.7178C14.9198 26.9881 14.0222 28.0722 12.874 28.8341C11.7257 29.5959 10.3779 30.0016 8.99989 30ZM8.99989 4C8.20449 4.00079 7.44189 4.31712 6.87945 4.87956C6.31701 5.44199 6.00069 6.20459 5.99989 7V18.983L5.66789 19.282C4.91277 19.9569 4.38041 20.8452 4.14127 21.8294C3.90214 22.8135 3.9675 23.8471 4.32871 24.7932C4.68992 25.7394 5.32995 26.5536 6.16408 27.128C6.99821 27.7024 7.98712 28.01 8.99989 28.01C10.0127 28.01 11.0016 27.7024 11.8357 27.128C12.6698 26.5536 13.3099 25.7394 13.6711 24.7932C14.0323 23.8471 14.0976 22.8135 13.8585 21.8294C13.6194 20.8452 13.087 19.9569 12.3319 19.282L11.9999 18.983V7C11.9991 6.20459 11.6828 5.44199 11.1203 4.87956C10.5579 4.31712 9.7953 4.00079 8.99989 4Z" fill="black"/>
</svg>
