<svg width="32" height="32" viewBox="0 0 32 32" fill="none" xmlns="http://www.w3.org/2000/svg">
<path d="M22.6952 16.0144C21.1072 10.792 16.4336 5.21841 16.196 4.93681C16.1589 4.89618 16.1137 4.86373 16.0634 4.84153C16.013 4.81933 15.9586 4.80786 15.9036 4.80786C15.8485 4.80786 15.7941 4.81933 15.7438 4.84153C15.6934 4.86373 15.6483 4.89618 15.6112 4.93681C15.3736 5.21841 10.6992 10.7912 9.11037 16.0144C8.78477 17.0856 8.57837 18.144 8.57837 19.1368C8.57837 23.1752 11.8648 26.4608 15.9032 26.4608C19.9416 26.4608 23.2264 23.1752 23.2264 19.1368C23.2272 18.144 23.0208 17.0864 22.6952 16.0144ZM15.904 25.696C12.2872 25.696 9.34477 22.7536 9.34477 19.1376C9.34477 18.156 9.56317 17.0952 9.91197 16.0152C11.3016 11.7152 14.8584 7.09041 15.904 5.79041C16.9496 7.09041 20.5064 11.7152 21.8944 16.0152C22.2432 17.096 22.4616 18.156 22.4616 19.1376C22.4616 22.7536 19.52 25.696 15.904 25.696Z" fill="black"/>
<path d="M11.7983 16.0144C11.3983 17.0304 11.1311 18.048 11.1311 18.9744C11.1311 20.2401 11.6339 21.454 12.5289 22.349C13.4239 23.244 14.6378 23.7468 15.9035 23.7468C17.1692 23.7468 18.3831 23.244 19.2781 22.349C20.1731 21.454 20.6759 20.2401 20.6759 18.9744C20.6759 18.048 20.4087 17.0304 20.0087 16.0144H11.7983Z" fill="black"/>
</svg>
