<svg width="36" height="36" viewBox="0 0 36 36" fill="none" xmlns="http://www.w3.org/2000/svg">
<path d="M31 27.19C30.9108 27.0054 30.767 26.8527 30.5882 26.7526C30.4093 26.6524 30.204 26.6096 30 26.63H29.15C26.6616 26.5622 24.2699 25.6524 22.3655 24.0493C20.4612 22.4462 19.1569 20.2446 18.6658 17.8042C18.1747 15.3639 18.5259 12.8291 19.6619 10.6142C20.7979 8.39922 22.6516 6.63508 24.92 5.61003C25.1139 5.52865 25.2772 5.38822 25.3867 5.20869C25.4962 5.02916 25.5464 4.81968 25.53 4.61003C25.5231 4.40848 25.4554 4.21372 25.3359 4.05132C25.2163 3.88892 25.0504 3.76646 24.86 3.70003C23.2564 3.12234 21.5645 2.82795 19.86 2.83003C15.8499 2.83003 12.0041 4.42302 9.16854 7.25857C6.33299 10.0941 4.73999 13.94 4.73999 17.95C4.73999 21.9601 6.33299 25.8059 9.16854 28.6415C12.0041 31.477 15.8499 33.07 19.86 33.07C21.928 33.0825 23.9756 32.6608 25.8704 31.8322C27.7652 31.0037 29.465 29.7867 30.86 28.26C30.9832 28.1137 31.0619 27.9352 31.0867 27.7455C31.1115 27.5559 31.0814 27.3631 31 27.19ZM19.89 31.12C16.4103 31.12 13.0732 29.7377 10.6127 27.2773C8.15227 24.8168 6.76999 21.4797 6.76999 18C6.76999 14.5204 8.15227 11.1833 10.6127 8.72279C13.0732 6.26231 16.4103 4.88003 19.89 4.88003C20.56 4.87653 21.2291 4.93006 21.89 5.04003C19.7479 6.54082 18.1083 8.65285 17.1855 11.1002C16.2627 13.5475 16.0995 16.2162 16.7173 18.7577C17.3352 21.2992 18.7052 23.5953 20.6485 25.3458C22.5918 27.0964 25.018 28.2201 27.61 28.57C25.3839 30.2397 22.6726 31.1353 19.89 31.12Z" fill="black"/>
</svg>
