<svg width="32" height="32" viewBox="0 0 32 32" fill="none" xmlns="http://www.w3.org/2000/svg">
<path d="M15.9999 2.66669C17.1066 2.6666 18.1713 3.08989 18.9758 3.84976C19.7803 4.60964 20.2636 5.64852 20.3266 6.75335L20.3333 7.00002L20.3346 17.6027L20.4413 17.6947C21.6838 18.8025 22.4659 20.3358 22.6333 21.992L22.6586 22.328L22.6666 22.6667C22.6668 23.7651 22.3956 24.8466 21.8771 25.8149C21.3585 26.7832 20.6088 27.6084 19.6945 28.2172C18.7802 28.8259 17.7296 29.1993 16.6362 29.3041C15.5428 29.4089 14.4404 29.242 13.4271 28.8181C12.4138 28.3942 11.5209 27.7264 10.8278 26.8743C10.1348 26.0221 9.663 25.0119 9.45448 23.9334C9.24596 22.855 9.30714 21.7417 9.63259 20.6926C9.95803 19.6435 10.5376 18.6911 11.3199 17.92L11.5599 17.6934L11.6653 17.6027L11.6666 7.00002C11.6664 5.93509 12.0583 4.90737 12.7676 4.11301C13.4768 3.31865 14.4538 2.81328 15.5119 2.69335L15.7546 2.67335L15.9999 2.66669ZM15.9999 4.66669C15.4141 4.66674 14.8498 4.88713 14.419 5.28408C13.9882 5.68104 13.7225 6.22551 13.6746 6.80935L13.6666 7.00002V18.592L13.2546 18.892C12.4674 19.4646 11.879 20.269 11.5717 21.1926C11.2644 22.1162 11.2536 23.1127 11.5408 24.0428C11.8279 24.9728 12.3988 25.7898 13.1733 26.3793C13.9478 26.9688 14.8873 27.3014 15.8603 27.3305C16.8332 27.3596 17.7909 27.0837 18.5993 26.5415C19.4076 25.9992 20.0262 25.2178 20.3684 24.3066C20.7106 23.3954 20.7594 22.3999 20.5078 21.4596C20.2561 20.5193 19.7168 19.6812 18.9653 19.0627L18.7453 18.8934L18.3359 18.5934L18.3333 7.00002C18.3333 6.38118 18.0874 5.78769 17.6498 5.3501C17.2123 4.91252 16.6188 4.66669 15.9999 4.66669ZM15.9999 10.6667C16.2651 10.6667 16.5195 10.772 16.707 10.9596C16.8946 11.1471 16.9999 11.4015 16.9999 11.6667V19.4867C17.76 19.7256 18.4094 20.2288 18.8306 20.9051C19.2518 21.5814 19.4169 22.3862 19.296 23.1737C19.1751 23.9613 18.7763 24.6795 18.1717 25.1984C17.5671 25.7173 16.7967 26.0025 15.9999 26.0025C15.2032 26.0025 14.4328 25.7173 13.8282 25.1984C13.2235 24.6795 12.8247 23.9613 12.7038 23.1737C12.583 22.3862 12.7481 21.5814 13.1693 20.9051C13.5904 20.2288 14.2398 19.7256 14.9999 19.4867V11.6667C14.9999 11.4015 15.1053 11.1471 15.2928 10.9596C15.4803 10.772 15.7347 10.6667 15.9999 10.6667Z" fill="black"/>
</svg>
