<svg width="32" height="32" viewBox="0 0 32 32" fill="none" xmlns="http://www.w3.org/2000/svg">
<path d="M3 13C2.73478 13 2.48043 12.8947 2.29289 12.7071C2.10536 12.5196 2 12.2652 2 12C2 11.7348 2.10536 11.4804 2.29289 11.2929C2.48043 11.1054 2.73478 11 3 11H15C15.3654 10.9999 15.7238 10.8996 16.0362 10.7101C16.3486 10.5207 16.6032 10.2492 16.7722 9.92527C16.9413 9.60133 17.0183 9.23728 16.995 8.87263C16.9718 8.50798 16.849 8.15667 16.6402 7.85685C16.4313 7.55703 16.1443 7.32015 15.8104 7.17194C15.4764 7.02373 15.1082 6.96984 14.7457 7.01614C14.3833 7.06243 14.0404 7.20713 13.7544 7.43453C13.4684 7.66192 13.2502 7.96333 13.1234 8.30602C13.0778 8.42918 13.0084 8.54217 12.9192 8.63851C12.83 8.73486 12.7226 8.8127 12.6033 8.86756C12.484 8.92243 12.355 8.95326 12.2238 8.95829C12.0926 8.96333 11.9617 8.94246 11.8385 8.89689C11.7153 8.85133 11.6024 8.78194 11.506 8.69271C11.4097 8.60348 11.3318 8.49614 11.277 8.37683C11.2221 8.25752 11.1913 8.12857 11.1862 7.99734C11.1812 7.86612 11.2021 7.73518 11.2476 7.61202C11.5012 6.92647 11.9377 6.32348 12.5098 5.86855C13.0819 5.41362 13.7677 5.12412 14.4928 5.03151C15.2178 4.9389 15.9544 5.0467 16.6225 5.34322C17.2905 5.63974 17.8646 6.11364 18.2824 6.71345C18.7001 7.31326 18.9455 8.01605 18.9919 8.74551C19.0384 9.47497 18.884 10.2032 18.5457 10.8511C18.2074 11.4991 17.6981 12.0419 17.073 12.4208C16.4479 12.7996 15.7309 13 15 13H3ZM19 19H5C4.73478 19 4.48043 19.1054 4.29289 19.2929C4.10536 19.4804 4 19.7348 4 20C4 20.2652 4.10536 20.5196 4.29289 20.7071C4.48043 20.8947 4.73478 21 5 21H19C19.3654 21.0002 19.7238 21.1004 20.0362 21.2899C20.3486 21.4794 20.6032 21.7508 20.7722 22.0748C20.9413 22.3987 21.0183 22.7628 20.995 23.1274C20.9718 23.4921 20.849 23.8434 20.6402 24.1432C20.4313 24.443 20.1443 24.6799 19.8104 24.8281C19.4764 24.9763 19.1082 25.0302 18.7457 24.9839C18.3833 24.9376 18.0404 24.7929 17.7544 24.5655C17.4684 24.3381 17.2502 24.0367 17.1234 23.694C17.0313 23.4453 16.8443 23.2433 16.6033 23.1325C16.484 23.0776 16.3551 23.0468 16.2238 23.0417C16.0926 23.0367 15.9617 23.0576 15.8385 23.1031C15.7153 23.1487 15.6024 23.2181 15.506 23.3073C15.4097 23.3966 15.3318 23.5039 15.277 23.6232C15.1661 23.8642 15.1556 24.1393 15.2476 24.388C15.5012 25.0736 15.9377 25.6766 16.5098 26.1315C17.0819 26.5864 17.7677 26.8759 18.4928 26.9685C19.2178 27.0611 19.9544 26.9533 20.6225 26.6568C21.2905 26.3603 21.8646 25.8864 22.2824 25.2866C22.7001 24.6868 22.9455 23.984 22.9919 23.2545C23.0384 22.5251 22.884 21.7968 22.5457 21.1489C22.2074 20.501 21.6981 19.9581 21.073 19.5793C20.4479 19.2004 19.7309 19.0001 19 19ZM26 9.00002C25.1831 9.00217 24.3863 9.25334 23.7159 9.72002C23.0455 10.1867 22.5333 10.8467 22.2476 11.612C22.2021 11.7352 22.1812 11.8661 22.1862 11.9973C22.1913 12.1286 22.2221 12.2575 22.277 12.3768C22.3318 12.4961 22.4097 12.6035 22.506 12.6927C22.6024 12.7819 22.7153 12.8513 22.8385 12.8969C22.9617 12.9425 23.0926 12.9633 23.2238 12.9583C23.3551 12.9533 23.484 12.9224 23.6033 12.8676C23.7226 12.8127 23.83 12.7349 23.9192 12.6385C24.0084 12.5422 24.0778 12.4292 24.1234 12.306C24.2501 11.9632 24.4684 11.6616 24.7544 11.4341C25.0405 11.2066 25.3834 11.0618 25.7459 11.0154C26.1085 10.9691 26.4768 11.0229 26.8109 11.1712C27.145 11.3194 27.4321 11.5563 27.641 11.8563C27.85 12.1562 27.9727 12.5076 27.996 12.8724C28.0192 13.2371 27.9421 13.6013 27.773 13.9253C27.6038 14.2493 27.3491 14.5208 27.0366 14.7103C26.724 14.8997 26.3655 15 26 15H4C3.73478 15 3.48043 15.1054 3.29289 15.2929C3.10536 15.4804 3 15.7348 3 16C3 16.2652 3.10536 16.5196 3.29289 16.7071C3.48043 16.8947 3.73478 17 4 17H26C27.0609 17 28.0783 16.5786 28.8284 15.8284C29.5786 15.0783 30 14.0609 30 13C30 11.9392 29.5786 10.9217 28.8284 10.1716C28.0783 9.42145 27.0609 9.00002 26 9.00002Z" fill="black"/>
</svg>
